<svg xmlns="http://www.w3.org/2000/svg" viewBox="0 0 60 60"><path d="M41.5 56.1h-2.3a2.4 2.4 0 0 1-2.3-2.4V49c0-.6.2-1.2.7-1.7a2 2 0 0 1 1.6-.7h2.3c2.5 0 4.8-1 6.5-2.8a9.4 9.4 0 0 0 2.7-6.7v-1.2c0-.9-.3-1.9-1-2.5-.6-.7-1.5-1-2.5-1h-8.1c-1.9 0-3.6-.7-4.9-2.1a6.8 6.8 0 0 1-2-5V11a7 7 0 0 1 6.9-7.1h13.8c1.9 0 3.6.7 4.9 2.1a6.8 6.8 0 0 1 2 5v26.1c0 2.5-.5 5-1.5 7.3-.9 2.2-2.3 4.3-3.9 6.1a20.2 20.2 0 0 1-5.9 4.1c-2.1 1-4.5 1.5-7 1.5zm-32.3 0H6.9a2.4 2.4 0 0 1-2.3-2.4V49c0-.6.2-1.2.7-1.7a2 2 0 0 1 1.6-.7h2.3c2.5 0 4.8-1 6.5-2.8a9.4 9.4 0 0 0 2.7-6.7v-1.2c0-.9-.3-1.9-1-2.5-.6-.7-1.5-1-2.5-1h-8c-1.9 0-3.6-.7-4.9-2.1a6.8 6.8 0 0 1-2-5V11a7 7 0 0 1 6.9-7.1h13.8c1.9 0 3.6.7 4.9 2.1a6.8 6.8 0 0 1 2 5v26.1c0 2.5-.5 5-1.5 7.3-.9 2.2-2.3 4.3-3.9 6.1a20.2 20.2 0 0 1-5.9 4.1 17 17 0 0 1-7.1 1.5z"></path></svg>